<svg width="200" height="40" viewBox="0 0 200 40" fill="none" xmlns="http://www.w3.org/2000/svg">
  <path d="M20 8H60V16H28V18H56V26H28V28H60V36H20V8Z" fill="currentColor"/>
  <path d="M68 8H108V16H76V18H104V26H76V28H108V36H68V8Z" fill="currentColor"/>
  <path d="M140 8C146.6 8 152 13.4 152 20C152 26.6 146.6 32 140 32C133.4 32 128 26.6 128 20C128 13.4 133.4 8 140 8ZM140 16C142.2 16 144 17.8 144 20C144 22.2 142.2 24 140 24C137.8 24 136 22.2 136 20C136 17.8 137.8 16 140 16Z" fill="currentColor"/>
  <path d="M180 8C186.6 8 192 13.4 192 20C192 26.6 186.6 32 180 32C173.4 32 168 26.6 168 20C168 13.4 173.4 8 180 8ZM180 16C182.2 16 184 17.8 184 20C184 22.2 182.2 24 180 24C177.8 24 176 22.2 176 20C176 17.8 177.8 16 180 16Z" fill="currentColor"/>
</svg> 