<svg width="200" height="40" viewBox="0 0 200 40" fill="none" xmlns="http://www.w3.org/2000/svg">
  <path d="M27.1213 39.3666C25.9213 39.3666 24.7213 39.1666 23.5213 38.7666C22.3213 38.3666 21.2213 37.7666 20.2213 36.9666C19.2213 36.1666 18.3213 35.1666 17.5213 33.9666C16.7213 32.7666 16.1213 31.3666 15.7213 29.7666L13.5213 21.7666L11.3213 29.7666C10.9213 31.3666 10.3213 32.7666 9.52134 33.9666C8.72134 35.1666 7.82134 36.1666 6.82134 36.9666C5.82134 37.7666 4.72134 38.3666 3.52134 38.7666C2.32134 39.1666 1.12134 39.3666 -0.0786591 39.3666V35.3666C0.721341 35.3666 1.52134 35.2666 2.32134 35.0666C3.12134 34.8666 3.82134 34.5666 4.52134 34.1666C5.22134 33.7666 5.82134 33.2666 6.32134 32.6666C6.82134 32.0666 7.22134 31.3666 7.52134 30.5666L12.5213 15.5666L8.52134 4.36661C8.12134 3.16661 7.52134 2.26661 6.72134 1.66661C5.92134 1.06661 4.92134 0.766614 3.72134 0.766614V-3.23339C4.92134 -3.23339 6.12134 -3.03339 7.32134 -2.63339C8.52134 -2.23339 9.62134 -1.63339 10.6213 -0.833386C11.6213 -0.0333864 12.5213 0.966614 13.3213 2.16661C14.1213 3.36661 14.7213 4.76661 15.1213 6.36661L17.3213 14.3666L19.5213 6.36661C19.9213 4.76661 20.5213 3.36661 21.3213 2.16661C22.1213 0.966614 23.0213 -0.0333864 24.0213 -0.833386C25.0213 -1.63339 26.1213 -2.23339 27.3213 -2.63339C28.5213 -3.03339 29.7213 -3.23339 30.9213 -3.23339V0.766614C30.1213 0.766614 29.3213 0.866614 28.5213 1.06661C27.7213 1.26661 27.0213 1.56661 26.3213 1.96661C25.6213 2.36661 25.0213 2.86661 24.5213 3.46661C24.0213 4.06661 23.6213 4.76661 23.3213 5.56661L18.3213 20.5666L22.3213 31.7666C22.7213 32.9666 23.3213 33.8666 24.1213 34.4666C24.9213 35.0666 25.9213 35.3666 27.1213 35.3666V39.3666Z" fill="currentColor"/>
  <path d="M66.5213 39.3666C65.3213 39.3666 64.1213 39.1666 62.9213 38.7666C61.7213 38.3666 60.6213 37.7666 59.6213 36.9666C58.6213 36.1666 57.7213 35.1666 56.9213 33.9666C56.1213 32.7666 55.5213 31.3666 55.1213 29.7666L52.9213 21.7666L50.7213 29.7666C50.3213 31.3666 49.7213 32.7666 48.9213 33.9666C48.1213 35.1666 47.2213 36.1666 46.2213 36.9666C45.2213 37.7666 44.1213 38.3666 42.9213 38.7666C41.7213 39.1666 40.5213 39.3666 39.3213 39.3666V35.3666C40.1213 35.3666 40.9213 35.2666 41.7213 35.0666C42.5213 34.8666 43.2213 34.5666 43.9213 34.1666C44.6213 33.7666 45.2213 33.2666 45.7213 32.6666C46.2213 32.0666 46.6213 31.3666 46.9213 30.5666L51.9213 15.5666L47.9213 4.36661C47.5213 3.16661 46.9213 2.26661 46.1213 1.66661C45.3213 1.06661 44.3213 0.766614 43.1213 0.766614V-3.23339C44.3213 -3.23339 45.5213 -3.03339 46.7213 -2.63339C47.9213 -2.23339 49.0213 -1.63339 50.0213 -0.833386C51.0213 -0.0333864 51.9213 0.966614 52.7213 2.16661C53.5213 3.36661 54.1213 4.76661 54.5213 6.36661L56.7213 14.3666L58.9213 6.36661C59.3213 4.76661 59.9213 3.36661 60.7213 2.16661C61.5213 0.966614 62.4213 -0.0333864 63.4213 -0.833386C64.4213 -1.63339 65.5213 -2.23339 66.7213 -2.63339C67.9213 -3.03339 69.1213 -3.23339 70.3213 -3.23339V0.766614C69.5213 0.766614 68.7213 0.866614 67.9213 1.06661C67.1213 1.26661 66.4213 1.56661 65.7213 1.96661C65.0213 2.36661 64.4213 2.86661 63.9213 3.46661C63.4213 4.06661 63.0213 4.76661 62.7213 5.56661L57.7213 20.5666L61.7213 31.7666C62.1213 32.9666 62.7213 33.8666 63.5213 34.4666C64.3213 35.0666 65.3213 35.3666 66.5213 35.3666V39.3666Z" fill="currentColor"/>
  <path d="M105.921 39.3666C104.721 39.3666 103.521 39.1666 102.321 38.7666C101.121 38.3666 100.021 37.7666 99.0213 36.9666C98.0213 36.1666 97.1213 35.1666 96.3213 33.9666C95.5213 32.7666 94.9213 31.3666 94.5213 29.7666L92.3213 21.7666L90.1213 29.7666C89.7213 31.3666 89.1213 32.7666 88.3213 33.9666C87.5213 35.1666 86.6213 36.1666 85.6213 36.9666C84.6213 37.7666 83.5213 38.3666 82.3213 38.7666C81.1213 39.1666 79.9213 39.3666 78.7213 39.3666V35.3666C79.5213 35.3666 80.3213 35.2666 81.1213 35.0666C81.9213 34.8666 82.6213 34.5666 83.3213 34.1666C84.0213 33.7666 84.6213 33.2666 85.1213 32.6666C85.6213 32.0666 86.0213 31.3666 86.3213 30.5666L91.3213 15.5666L87.3213 4.36661C86.9213 3.16661 86.3213 2.26661 85.5213 1.66661C84.7213 1.06661 83.7213 0.766614 82.5213 0.766614V-3.23339C83.7213 -3.23339 84.9213 -3.03339 86.1213 -2.63339C87.3213 -2.23339 88.4213 -1.63339 89.4213 -0.833386C90.4213 -0.0333864 91.3213 0.966614 92.1213 2.16661C92.9213 3.36661 93.5213 4.76661 93.9213 6.36661L96.1213 14.3666L98.3213 6.36661C98.7213 4.76661 99.3213 3.36661 100.121 2.16661C100.921 0.966614 101.821 -0.0333864 102.821 -0.833386C103.821 -1.63339 104.921 -2.23339 106.121 -2.63339C107.321 -3.03339 108.521 -3.23339 109.721 -3.23339V0.766614C108.921 0.766614 108.121 0.866614 107.321 1.06661C106.521 1.26661 105.821 1.56661 105.121 1.96661C104.421 2.36661 103.821 2.86661 103.321 3.46661C102.821 4.06661 102.421 4.76661 102.121 5.56661L97.1213 20.5666L101.121 31.7666C101.521 32.9666 102.121 33.8666 102.921 34.4666C103.721 35.0666 104.721 35.3666 105.921 35.3666V39.3666Z" fill="currentColor"/>
  <path d="M145.321 39.3666C144.121 39.3666 142.921 39.1666 141.721 38.7666C140.521 38.3666 139.421 37.7666 138.421 36.9666C137.421 36.1666 136.521 35.1666 135.721 33.9666C134.921 32.7666 134.321 31.3666 133.921 29.7666L131.721 21.7666L129.521 29.7666C129.121 31.3666 128.521 32.7666 127.721 33.9666C126.921 35.1666 126.021 36.1666 125.021 36.9666C124.021 37.7666 122.921 38.3666 121.721 38.7666C120.521 39.1666 119.321 39.3666 118.121 39.3666V35.3666C118.921 35.3666 119.721 35.2666 120.521 35.0666C121.321 34.8666 122.021 34.5666 122.721 34.1666C123.421 33.7666 124.021 33.2666 124.521 32.6666C125.021 32.0666 125.421 31.3666 125.721 30.5666L130.721 15.5666L126.721 4.36661C126.321 3.16661 125.721 2.26661 124.921 1.66661C124.121 1.06661 123.121 0.766614 121.921 0.766614V-3.23339C123.121 -3.23339 124.321 -3.03339 125.521 -2.63339C126.721 -2.23339 127.821 -1.63339 128.821 -0.833386C129.821 -0.0333864 130.721 0.966614 131.521 2.16661C132.321 3.36661 132.921 4.76661 133.321 6.36661L135.521 14.3666L137.721 6.36661C138.121 4.76661 138.721 3.36661 139.521 2.16661C140.321 0.966614 141.221 -0.0333864 142.221 -0.833386C143.221 -1.63339 144.321 -2.23339 145.521 -2.63339C146.721 -3.03339 147.921 -3.23339 149.121 -3.23339V0.766614C148.321 0.766614 147.521 0.866614 146.721 1.06661C145.921 1.26661 145.221 1.56661 144.521 1.96661C143.821 2.36661 143.221 2.86661 142.721 3.46661C142.221 4.06661 141.821 4.76661 141.521 5.56661L136.521 20.5666L140.521 31.7666C140.921 32.9666 141.521 33.8666 142.321 34.4666C143.121 35.0666 144.121 35.3666 145.321 35.3666V39.3666Z" fill="currentColor"/>
  <path d="M184.721 39.3666C183.521 39.3666 182.321 39.1666 181.121 38.7666C179.921 38.3666 178.821 37.7666 177.821 36.9666C176.821 36.1666 175.921 35.1666 175.121 33.9666C174.321 32.7666 173.721 31.3666 173.321 29.7666L171.121 21.7666L168.921 29.7666C168.521 31.3666 167.921 32.7666 167.121 33.9666C166.321 35.1666 165.421 36.1666 164.421 36.9666C163.421 37.7666 162.321 38.3666 161.121 38.7666C159.921 39.1666 158.721 39.3666 157.521 39.3666V35.3666C158.321 35.3666 159.121 35.2666 159.921 35.0666C160.721 34.8666 161.421 34.5666 162.121 34.1666C162.821 33.7666 163.421 33.2666 163.921 32.6666C164.421 32.0666 164.821 31.3666 165.121 30.5666L170.121 15.5666L166.121 4.36661C165.721 3.16661 165.121 2.26661 164.321 1.66661C163.521 1.06661 162.521 0.766614 161.321 0.766614V-3.23339C162.521 -3.23339 163.721 -3.03339 164.921 -2.63339C166.121 -2.23339 167.221 -1.63339 168.221 -0.833386C169.221 -0.0333864 170.121 0.966614 170.921 2.16661C171.721 3.36661 172.321 4.76661 172.721 6.36661L174.921 14.3666L177.121 6.36661C177.521 4.76661 178.121 3.36661 178.921 2.16661C179.721 0.966614 180.621 -0.0333864 181.621 -0.833386C182.621 -1.63339 183.721 -2.23339 184.921 -2.63339C186.121 -3.03339 187.321 -3.23339 188.521 -3.23339V0.766614C187.721 0.766614 186.921 0.866614 186.121 1.06661C185.321 1.26661 184.621 1.56661 183.921 1.96661C183.221 2.36661 182.621 2.86661 182.121 3.46661C181.621 4.06661 181.221 4.76661 180.921 5.56661L175.921 20.5666L179.921 31.7666C180.321 32.9666 180.921 33.8666 181.721 34.4666C182.521 35.0666 183.521 35.3666 184.721 35.3666V39.3666Z" fill="currentColor"/>
</svg> 