<svg width="200" height="40" viewBox="0 0 200 40" fill="none" xmlns="http://www.w3.org/2000/svg">
  <path d="M20 8H28V32H20V8Z" fill="currentColor"/>
  <path d="M36 8H44V32H36V8Z" fill="currentColor"/>
  <path d="M52 8H60V32H52V8Z" fill="currentColor"/>
  <path d="M68 8H76V32H68V8Z" fill="currentColor"/>
  <path d="M84 8H92V32H84V8Z" fill="currentColor"/>
  <path d="M100 8H108V32H100V8Z" fill="currentColor"/>
  <path d="M116 8H124V32H116V8Z" fill="currentColor"/>
  <path d="M132 8H140V32H132V8Z" fill="currentColor"/>
  <path d="M148 8H156V32H148V8Z" fill="currentColor"/>
  <path d="M164 8H172V32H164V8Z" fill="currentColor"/>
  <path d="M180 8H188V32H180V8Z" fill="currentColor"/>
</svg> 